# xmcd
#
# Track frame offsets: 
#        150
#        12526
#        28503
#        42181
#        56475
#        72108
#        86497
#        101574
#        118991
#        134095
#        152803
#        165641
#
# Disc length: 2410 seconds
#
# Revision: 1
# Processed by: cddbd v1.5.2PL0 Copyright (c) Steve Scherf et al.
# Submitted via: ExactAudioCopyFreeDBPlugin 1.0
#
DISCID=a109680c
DTITLE=The Pepper Pots - We Must Fight
DYEAR=2013
DGENRE=Soul
TTITLE0=Good Times
TTITLE1=We Must Fight
TTITLE2=Got Me Crazy
TTITLE3=Don't Let No One
TTITLE4=You've Got the Future
TTITLE5=Come Back to Me
TTITLE6=Let Me Go Away
TTITLE7=Waiting for You
TTITLE8=I Won't Say I Love You
TTITLE9=Time Has Won This One
TTITLE10=Free My Mind
TTITLE11=Fallen Angel
EXTD=
EXTT0=
EXTT1=
EXTT2=
EXTT3=
EXTT4=
EXTT5=
EXTT6=
EXTT7=
EXTT8=
EXTT9=
EXTT10=
EXTT11=
PLAYORDER=
